<svg width="342" height="218" viewBox="0 0 342 218" fill="none" xmlns="http://www.w3.org/2000/svg">
<rect y="93" width="17" height="32" rx="6" fill="#393C43"/>
<rect x="25" y="43" width="17" height="132" rx="6" fill="#393C43"/>
<rect x="50" y="69" width="17" height="80" rx="6" fill="#393C43"/>
<rect x="75" y="55" width="17" height="108" rx="6" fill="#676C75"/>
<rect x="100" y="81" width="17" height="56" rx="6" fill="#9EA0A5"/>
<rect x="125" y="43" width="17" height="132" rx="6" fill="#D7D8D9"/>
<rect x="150" width="17" height="218" rx="6" fill="white"/>
<rect x="175" y="66" width="17" height="86" rx="6" fill="#D7D8D9"/>
<rect x="200" y="43" width="17" height="132" rx="6" fill="#9EA0A5"/>
<rect x="225" y="72" width="17" height="74" rx="6" fill="#676C75"/>
<rect x="250" width="17" height="218" rx="6" fill="#393C43"/>
<rect x="275" y="43" width="17" height="132" rx="6" fill="#393C43"/>
<rect x="300" y="69" width="17" height="80" rx="6" fill="#393C43"/>
<rect x="325" y="86" width="17" height="46" rx="6" fill="#393C43"/>
</svg>
