<svg width="39" height="40" viewBox="0 0 39 40" fill="none" xmlns="http://www.w3.org/2000/svg">
<path d="M23.6796 1.39419C20.966 0.489655 18.0144 0.495594 15.3008 1.40013C14.1885 1.77092 13.346 2.70273 13.096 3.84833L12.4286 6.90755C11.8893 9.37921 11.6197 10.615 10.7736 11.4494C9.92762 12.2838 8.68817 12.5363 6.20927 13.0412L3.37312 13.619C2.21366 13.8551 1.26803 14.694 0.893847 15.8166C-0.0106848 18.5302 -0.0118929 21.4676 0.892639 24.1812C1.26769 25.3063 2.21687 26.1442 3.37984 26.3768L6.26938 26.9547C8.80436 27.4617 10.0718 27.7152 10.9282 28.5716C11.7846 29.428 12.0381 30.6955 12.5451 33.2305L13.123 36.12C13.3556 37.283 14.1935 38.2322 15.3187 38.6072C18.0323 39.5117 20.966 39.5117 23.6796 38.6072C24.8048 38.2322 25.6427 37.283 25.8753 36.12L26.4532 33.2305C26.9602 30.6955 27.2137 29.428 28.0701 28.5716C28.9264 27.7152 30.1939 27.4617 32.7289 26.9547L35.6184 26.3768C36.7814 26.1442 37.7306 25.3063 38.1057 24.1812C39.0102 21.4676 39.0102 18.5338 38.1057 15.8202C37.7306 14.6951 36.7814 13.8571 35.6184 13.6246L32.7289 13.0466C30.1939 12.5397 28.9264 12.2862 28.0701 11.4298C27.2137 10.5734 26.9602 9.30591 26.4532 6.77093L25.8753 3.88139C25.6427 2.71841 24.8048 1.76923 23.6796 1.39419Z" fill="white"/>
</svg>
